<svg width="52" height="33" viewBox="0 0 52 33" fill="none" xmlns="http://www.w3.org/2000/svg">
<rect x="0.323303" y="0.857086" width="49.4737" height="28.2707" rx="14.1353" fill="#C8BCF6"/>
<g filter="url(#filter0_ddd_2291_175)">
<rect x="23.2932" y="2.62399" width="24.7368" height="24.7368" rx="12.3684" fill="#09090A"/>
</g>
<path fill-rule="evenodd" clip-rule="evenodd" d="M40.9237 17.7628C39.5695 17.5255 38.219 16.5311 37.4052 15.0121C36.4433 13.2163 36.5122 11.2115 37.4411 9.93853C37.5363 9.80805 37.6406 9.68526 37.7537 9.57117C37.9718 9.35113 37.9087 8.94053 37.602 8.89042C37.402 8.85774 37.1988 8.83453 36.9928 8.82128C36.8579 8.8126 36.7218 8.8082 36.5846 8.8082C33.1474 8.8082 30.3609 11.577 30.3609 14.9924C30.3609 18.4079 33.1474 21.1766 36.5846 21.1766C38.5406 21.1766 40.2858 20.2801 41.4268 18.8779C41.5564 18.7186 41.6783 18.5528 41.7917 18.381C41.9534 18.1362 41.7291 17.8253 41.4346 17.816C41.265 17.8106 41.0943 17.7927 40.9237 17.7628Z" stroke="#C8BCF6" stroke-width="1.32519"/>
<defs>
<filter id="filter0_ddd_2291_175" x="19.7594" y="0.857076" width="31.8045" height="31.8045" filterUnits="userSpaceOnUse" color-interpolation-filters="sRGB">
<feFlood flood-opacity="0" result="BackgroundImageFix"/>
<feColorMatrix in="SourceAlpha" type="matrix" values="0 0 0 0 0 0 0 0 0 0 0 0 0 0 0 0 0 0 127 0" result="hardAlpha"/>
<feOffset dy="0.883459"/>
<feGaussianBlur stdDeviation="1.32519"/>
<feColorMatrix type="matrix" values="0 0 0 0 0 0 0 0 0 0 0 0 0 0 0 0 0 0 0.1 0"/>
<feBlend mode="normal" in2="BackgroundImageFix" result="effect1_dropShadow_2291_175"/>
<feColorMatrix in="SourceAlpha" type="matrix" values="0 0 0 0 0 0 0 0 0 0 0 0 0 0 0 0 0 0 127 0" result="hardAlpha"/>
<feOffset dy="0.883459"/>
<feGaussianBlur stdDeviation="0.883459"/>
<feColorMatrix type="matrix" values="0 0 0 0 0 0 0 0 0 0 0 0 0 0 0 0 0 0 0.1 0"/>
<feBlend mode="normal" in2="effect1_dropShadow_2291_175" result="effect2_dropShadow_2291_175"/>
<feColorMatrix in="SourceAlpha" type="matrix" values="0 0 0 0 0 0 0 0 0 0 0 0 0 0 0 0 0 0 127 0" result="hardAlpha"/>
<feOffset dy="1.76692"/>
<feGaussianBlur stdDeviation="1.76692"/>
<feColorMatrix type="matrix" values="0 0 0 0 0 0 0 0 0 0 0 0 0 0 0 0 0 0 0.1 0"/>
<feBlend mode="normal" in2="effect2_dropShadow_2291_175" result="effect3_dropShadow_2291_175"/>
<feBlend mode="normal" in="SourceGraphic" in2="effect3_dropShadow_2291_175" result="shape"/>
</filter>
</defs>
</svg>
